<?xml version="1.0" encoding="utf-8"?>
<!-- Generator: Adobe Illustrator 11.0, SVG Export Plug-In . SVG Version: 6.0.0 Build 78)  -->
<!DOCTYPE svg PUBLIC "-//W3C//DTD SVG 1.0//EN"    "http://www.w3.org/TR/2001/REC-SVG-20010904/DTD/svg10.dtd" [
	<!ENTITY ns_flows "http://ns.adobe.com/Flows/1.0/">
	<!ENTITY ns_extend "http://ns.adobe.com/Extensibility/1.0/">
	<!ENTITY ns_ai "http://ns.adobe.com/AdobeIllustrator/10.0/">
	<!ENTITY ns_graphs "http://ns.adobe.com/Graphs/1.0/">
	<!ENTITY ns_vars "http://ns.adobe.com/Variables/1.0/">
	<!ENTITY ns_imrep "http://ns.adobe.com/ImageReplacement/1.0/">
	<!ENTITY ns_sfw "http://ns.adobe.com/SaveForWeb/1.0/">
	<!ENTITY ns_custom "http://ns.adobe.com/GenericCustomNamespace/1.0/">
	<!ENTITY ns_adobe_xpath "http://ns.adobe.com/XPath/1.0/">
	<!ENTITY ns_svg "http://www.w3.org/2000/svg">
	<!ENTITY ns_xlink "http://www.w3.org/1999/xlink">
]>
<svg 
	 xmlns:x="&ns_extend;" xmlns:i="&ns_ai;" xmlns:graph="&ns_graphs;" i:viewOrigin="14.3052 139.7397" i:rulerOrigin="0 0" i:pageBounds="0 180 300 0"
	 xmlns="&ns_svg;" xmlns:xlink="&ns_xlink;" xmlns:a="http://ns.adobe.com/AdobeSVGViewerExtensions/3.0/"
	 width="267.021" height="53.431" viewBox="0 0 267.021 53.431" overflow="visible" enable-background="new 0 0 267.021 53.431"
	 xml:space="preserve">
	<metadata>
		<variableSets  xmlns="&ns_vars;">
			<variableSet  varSetName="binding1" locked="none">
				<variables></variables>
				<v:sampleDataSets  xmlns="&ns_custom;" xmlns:v="&ns_vars;"></v:sampleDataSets>
			</variableSet>
		</variableSets>
		<sfw  xmlns="&ns_sfw;">
			<slices></slices>
			<sliceSourceBounds  y="86.309" x="14.305" height="53.431" width="267.021" bottomLeftOrigin="true"></sliceSourceBounds>
		</sfw>
<?xpacket begin='﻿' id='W5M0MpCehiHzreSzNTczkc9d'?><x:xmpmeta xmlns:x='adobe:ns:meta/' x:xmptk='XMP toolkit 3.0-29, framework 1.6'>
<rdf:RDF xmlns:rdf='http://www.w3.org/1999/02/22-rdf-syntax-ns#' xmlns:iX='http://ns.adobe.com/iX/1.0/'>

 <rdf:Description rdf:about=''
  xmlns:pdf='http://ns.adobe.com/pdf/1.3/'>
 </rdf:Description>

 <rdf:Description rdf:about=''
  xmlns:tiff='http://ns.adobe.com/tiff/1.0/'>
 </rdf:Description>

 <rdf:Description rdf:about=''
  xmlns:xap='http://ns.adobe.com/xap/1.0/'
  xmlns:xapGImg='http://ns.adobe.com/xap/1.0/g/img/'>
  <xap:CreateDate>2019-01-22T08:39:51Z</xap:CreateDate>
  <xap:ModifyDate>2019-01-22T08:40:22Z</xap:ModifyDate>
  <xap:CreatorTool>Illustrator</xap:CreatorTool>
  <xap:Thumbnails>
   <rdf:Alt>
    <rdf:li rdf:parseType='Resource'>
     <xapGImg:format>JPEG</xapGImg:format>
     <xapGImg:width>256</xapGImg:width>
     <xapGImg:height>52</xapGImg:height>
     <xapGImg:image>/9j/4AAQSkZJRgABAgEASABIAAD/7QAsUGhvdG9zaG9wIDMuMAA4QklNA+0AAAAAABAASAAAAAEA&#xA;AQBIAAAAAQAB/+4ADkFkb2JlAGTAAAAAAf/bAIQABgQEBAUEBgUFBgkGBQYJCwgGBggLDAoKCwoK&#xA;DBAMDAwMDAwQDA4PEA8ODBMTFBQTExwbGxscHx8fHx8fHx8fHwEHBwcNDA0YEBAYGhURFRofHx8f&#xA;Hx8fHx8fHx8fHx8fHx8fHx8fHx8fHx8fHx8fHx8fHx8fHx8fHx8fHx8fHx8f/8AAEQgANAEAAwER&#xA;AAIRAQMRAf/EAaIAAAAHAQEBAQEAAAAAAAAAAAQFAwIGAQAHCAkKCwEAAgIDAQEBAQEAAAAAAAAA&#xA;AQACAwQFBgcICQoLEAACAQMDAgQCBgcDBAIGAnMBAgMRBAAFIRIxQVEGE2EicYEUMpGhBxWxQiPB&#xA;UtHhMxZi8CRygvElQzRTkqKyY3PCNUQnk6OzNhdUZHTD0uIIJoMJChgZhJRFRqS0VtNVKBry4/PE&#xA;1OT0ZXWFlaW1xdXl9WZ2hpamtsbW5vY3R1dnd4eXp7fH1+f3OEhYaHiImKi4yNjo+Ck5SVlpeYmZ&#xA;qbnJ2en5KjpKWmp6ipqqusra6voRAAICAQIDBQUEBQYECAMDbQEAAhEDBCESMUEFURNhIgZxgZEy&#xA;obHwFMHR4SNCFVJicvEzJDRDghaSUyWiY7LCB3PSNeJEgxdUkwgJChgZJjZFGidkdFU38qOzwygp&#xA;0+PzhJSktMTU5PRldYWVpbXF1eX1RlZmdoaWprbG1ub2R1dnd4eXp7fH1+f3OEhYaHiImKi4yNjo&#xA;+DlJWWl5iZmpucnZ6fkqOkpaanqKmqq6ytrq+v/aAAwDAQACEQMRAD8A9U4q05YIxQcmAPFelT2G&#xA;Kt03B8MVQFl6kl7ezgDgXEMTg1UrCor8P83qvIpPtiqPxVZJIkMck0r8YkUu7NQBVUVJxVQ0ya5n&#xA;sIJblfTuWUeulNg42cD2DVpiqJYE9GK/Kn8QcVaCsP2yfCoFPwAxVTaV2jb0xSRZFR12NByFTt/k&#xA;HkMVVhiqHs7h7i1WYgfvSxiK1IMfI+m3+yShxVXANSak17bYql2n3E+oXb3qOV01AYrRR0nNfinJ&#xA;7ptxjpsRVviBQhVMamtB95xVxUk15Eewp/TFVplCtwcgNQFT0BqafrxVcvL9og/IU/icVcQSRuRT&#xA;sKb4qhIbqWTU7mEUa3iRFqOqzCruD80kjI+nFUZQ0oTv4jFVvBv9+N/wv9MVU7icwqxIH2WaMnoS&#xA;orxP6/vxVUpL/Mv/AAJ/rirgJK7sCPYEfxxVR1KeWCwnkhp64QiAN0MrbRr/ALJyBiqIxVa8gVkU&#xA;1rI3EU8aFt/uxVRv7r6nZXN2w5rbxPLwGxIRSxFfemKqo9WgBK1AHJgDue+1dvvxVfiqF1GeW2sJ&#xA;5ImBuOJW3D04mZ/hiU0p9pyBiqKxVTm4HgjV+Nxxp4r8e/8AwOKr3dI0Z3IVEBZmPQAbknFUDosX&#xA;CzRpEMdy6hrqPsJZKzSU/wBnKcVa1QXU0traWt09pJI7STSRCMyejGhB4+qkif3jxg/D3xVQk8vz&#xA;To0V5q17dW7grJA31eNWBFCGMEMT0INKcsVTSElokYrwLAMydKE7n8cVS24k1u5vJ0027tbaG2Kx&#xA;SrcW0k7GQoJCQyXEAC8ZF2p1riqNsTf+my3piaVGoskIZVdaAglG5cDvSnJvGu9AqoWbyPdXbRgC&#xA;IXXEuKEOq26KT/sZBxPyxVEX9y1rY3Nyq82gieQJ/MUUtT6aYq6xtY7W0gt46+nBGsUdevBFCivv&#xA;tiqB1N3vrkaRAxWMqJNTlU8SsDVCxK3UPMQRtuqcjVWKHFUzVVULGihEUAAAUAA2AFMVbZlVSzEK&#xA;qirMdgAMVSkea9D4c2mdOdfq6PDKr3ABpyt4yvOYf8YwdqHoQSq1Bfvf6nA6afcpZLHIPrc6CEFy&#xA;yOoEblZx/d/tRge+Kpnd3MdrazXMtfSgRpHp14oCx/AYqlkWi6v6KCbXr0y8R6hRLILypvxrbVpX&#xA;piqN0+wFmZUV3kWQh2llbk7PTiST7KqjFVuqz3qLbw2Txx3F1L6SzTRtKiUjeQlkV4iaiOn2h1xV&#xA;ZaJr8UyC9ntbqJyQxggkt2SgJBo0twGrSn7P8MVW6whnktbONws8pmYHuqCB4zIB34vKg+nFVS0m&#xA;1wz8Ly1tkg3/AH0Nw7sSOhMbQxgA/wCuae+Kou4nit4JJ5W4xRKzyN4KoqT92KpUqeYL5oo7+0tb&#xA;S1WSOZzFcSTykxOJFWhhhUfGoqeRxVOMVWkt6qrSqFWJbwIIA/WcVQurFvqgRQG9WWGJ0P7Ubyqs&#xA;g/5FlsVREPA83WvxOeVfFfg/41xVA38d3dX8dtbX8tksMRkuPQWFmJkYCKvrRy7fBJ0GKrU0N2kj&#xA;a71K7vVjdZEil9BE5IwdSRBFDyoyg7+GKppiq08/UXYcKGvjXan8cVQetgNpksJUstyUtnp1C3Dr&#xA;Czf7EPXFUZHzoS4Aap6eFaL+GKqJty2orcMu0ULRxMDv+9YGQEf88kp9OKr5pDUxIaSsjMjEfCCK&#xA;AVPzbFVXFUNYwTRJKZuPqyzSuzL3UuRHX3EQQfRiqjqmo/VFjt7dVk1K75LZWx/aYfakem4jjrV2&#xA;+gVZlBVVLCyS0iigWUyGJG9VmpykeVuTStxoOTOGJoKb4qi8VQ2o3b2tm80cRmlqqQxDblJIwRAT&#xA;Q8V5MKnsN8Va02wWytyhb1Z5WMt1ORQyStTk1Kmg2AUV+FQF6DFURGPhqRQtudgDv408BtiqXaoi&#xA;31zFpRHKBh69+OxhU0SNqH/drjoRRlVwcVTPFVhqZhRhRVPJO9SRxP4HFVHUoJZ7NoIwrCVkSVW6&#xA;NCXAmH0x8gMVV5ZUiTk5oCVUd92YKo+knFWogtZHVuQdz9BUBCPvXFVGS3lbUIJwR6MUUqsh/ndo&#xA;+LD5KrD6cVVLi4t7W3kubmVYYIULzTSEKiIoqzMTsABiqB0oTXU0mqzo0YmUR2UEgKskANeTKfiV&#xA;5jRmBoQAoIDKcVTAgmZSG2VSGSv8xFDT/YnFULrNDp7xMnNLho7aRd/sTyLE528FcnFUbirsVWgN&#xA;6rNyqnFQF8CCSf1jFULeASX9hGHo8byXBX+ZFiaI/c064qio+fpr6n26DlTpWm+KqEFu63t1cOoD&#xA;SCOONgesUYLCo8ecj/RTFVZZUaV4xUlACxptVq7V8e9Pliq/FVihDK7A1YURh2FPiH/EsVQd/Iv1&#xA;6yTmUMRlunHZo44zEw/4KdT9GKo2JBHGkYNQihQT7CmKpbPfa21zcRWFjbyx27CMyXFy8JZjGsmy&#xA;pBP8PxgVr9GKtWUeptdyT6nDDA04hihitpnnUGEyS8mZ4oKV5UpQ9MVTK4nit4JJ5m4RQq0kjbmi&#xA;qKk7e2KrldXjDoaqwBU+x3GKpfo+mQ26tdO73GoTgLdXcxDSEoSPTWgVVjQ1oqAL1b7RJKqOShkk&#xA;biQwIQt4gDkP+JHFVsl3bR3ENs8irPccjDET8TBBVyB4LUVOKuu42e3cIgkkUc4kY0UyIeSV/wBk&#xA;BirpJYmtw9ecUvFQV7iQhQQf9liqriqA0oGSS8vGBDTzvGoYbrHbkwhQf5SyNIP9bFUfiqxOJlkb&#xA;jRhRC3iAOQ/4kcVQ+oXV5D6UdlBHcXMrEcJZDCqoqks5ZUlNAaL9nqRiqAkTzJePHDdWdnBbCaGV&#xA;5oruWWQCGRZaCNraMGpSn2/fFU3hNYlbhwLDkU8C25/E4q6OeKR5UQ1aFgkgoRQlQ469dmHTFUBd&#xA;aZDealG947ywQhJbezYqIfVjavqMgHJ2Q8SORKg0IHIVxVMsVWJwMsjBaOKIzeIA5D/ieKoe99Rr&#xA;qwRDt6zPMvjGsLitPASFPppiqLxV2KrIuB5uhryY8vmvwH/iOKoGf0JdUdJAQ0FsE5Dut5JxP3G3&#xA;GKpjiqUm/wDMUpkaz0+1eFZHSNp7uSJ2COU5FVtpQK8aj4jtiqI0qHUEW5mvljjnuZvU9GGRpkRR&#xA;GkYAd0iJr6fL7I64qjSxB2WtOv8AZXFXKKV6VJqSBT5fhiqADPNqtwyqsiWyRQKT1V5W9SdT/wA8&#xA;/Sb/ADOKphiqC0gj6gkvqB0uHlnibpVJ5GljH/AuMVRXIs44kFAG5dzyBoP44qhtWDNarCtCZ5Yo&#xA;2Q/tRmRfVX/kUGxVVsqLCYQFX0GMQRTUKq/3Y3rv6ZU4quHwXLDfjMOQ8A6gA7k91pQAdjiq6Gpj&#xA;qWD8iWVh/KSSv4YqgJWP6VkmZBIlukEUL91knkYTD/gPTOKpliqBJ9O2MXT0Z441ovFeJkQoq/JG&#xA;C/PFUdiqE063lg021tJW5SwwxxSuK0JVACQdjvirtQu/qkSFBznmkWG3hrTnI/3niqgu1OigmmKo&#xA;mLnwqzBiSSCOnEklfwxVBnhJrfUhrW2NfAi5k/h9W/HFUVNJHwKeoEaQEIe+5C1A+bDFVTFUr0io&#xA;CT15re+rKstRTgZWkhWnj6cv/C4qj7moQSitYjyIFTVf2hRdz8PQeNMVVcVWRFilWYPUkqw6cSSV&#xA;/wCFxVDMBJrCFW3trdxIle1w68DT/o3bFUWXA8T8gT+rFWwQen3Yqti5empdQrkAuo6BjufxxVBW&#xA;pke/vGKj4Z0i5H/fSwLIv3SSNiqKurmO1tZrmWvpwI0j068UBY9fliqnp1u9rp9rayOHlhhSNmB+&#xA;0UUKSK74qiEdHRXRgyMAVYGoIPQg4qoWN3bXcHrW8gkUkh6dVcdUYUBVl6EMKjvirWo6hb2Ft681&#xA;SSQkMS0LyyNsscYJFWY9N/ntiqjp1rJBDEtywN7Kz3NxxJYF22ZQxAqsfMIld+IGKo2SSONC8jBE&#xA;XdmYgAD3JxVKx5t8suSlvqUF3KOsNo31qX/kXB6j/hiqpoIBtHl9N4zLNM6iRHjYpJM8qEpIFdTS&#xA;TcEdcVUxqWl6lqltb2d1HcyWTSXExgdZAjBDCI5OJPEt6xIr/KcVRrzR29xI0rrHC8fqsxAVVMZo&#xA;7O/+qy9fDFUubzDaXvpDSY5dSPNWW5tkU24U7FxcSlIXWlQfTZm32GKpyqhVCqKKBQD2GKpbbN/o&#xA;mpXkS/HLNM4RhWj2wFuPv9Dl9OKrf8WeVv8Aq82P/STD/wA1YqsTWdGv7swafqVrcTzREKI5o5Sr&#xA;xnkjCME1pyJJ9hiqY2d3HdRc1+F0JSaIkFo5F+0jU7j8eo2xV19f2dhbNc3coihUgVNSSzGiqqir&#xA;MzHZVUVJ2GKoC0juZp31e/iaIxo62VmSCYo+rO9CR6klB/qjYftVVTVEVEVF+yoAHyG2Kpfd+Y/L&#xA;1nN6F3qdpbzj/dUs8aP4fZZgcVUbe8ttS1KKe1WR4raN45JJYZoUPqsjqY2kRFk+KHcoTT6cVVdZ&#xA;12w06F0e4hF+0bNaWbuBJK4HwqkdebVbb4Riqs9vDZafAqUEVgqcWffjHGvFzt39Pliqjd+YtItr&#xA;k2nrGe9WnK0tke4mWvQvHEHZFP8AM9B74qradLcHTleS0ktpEDBLWUxlwqkhFJieZPs0/axVFoio&#xA;ioooqgBR4AbYqgLaaGW81C5gpJJDwtWVTUExKZaV6VrPTFUfGUKKUIZCAVYGoIPevfFUDqV0kdxZ&#xA;23I8ruR42VacvT9NqtTrQOUBPYkeOKo/FUBpQJjLO3J+c8iEGoMU87tGf+BUUxVFXN1a2sRmuZkg&#xA;hX7UkjBFHfcsQMVS0ebfLrqTbXqXxAqVsA96wHutsJW/DFUZpELwaTZQuKPFBEjAjjuqAHbtiqX6&#xA;z/h360frPq/X+K8/qH1n636VTx5/U/33p8q/a+GuKqOif4Z/SJ+rfWf0lxb0v0l9d9f06j1PQ+vf&#xA;Fwrx5+nt0r2xVF6/+i/9H+vfXq1b0vqH17l2rz+pb06fb2xVLLb/AJVp9ZTh+ivr2/H1fQ+s9d6+&#xA;p+9+/FWUilBTp2p0pirG9X/wX9em/TvHqv8Ax1PV+pcuIp6P1n/ReVOvp7+O+Kshg9D0I/Q4+hxH&#xA;pcKcOFPh402pTpTFUPqP6I4wfpL6vx9Zfqv1nhT16Hh6fP8AbpWlN8Vb1T6t+j5/rXrehx+P6t63&#xA;rdf91/V/33Kv8m+KsbP/ACrr0/8Acn6Xbj+nvW9Tp+z+kvj6eGKsosvqX1OH6j6f1PgPq/ocfS4U&#xA;+Hhx+Hj4UxVWxV2KpJrH6A+tf6R9Y+uUHq/o/wCt+tx34et9S+Pj14ept1p3xVR0f/C36QX0PV/S&#xA;dG9D9JfWvrXGnx+h9e/e8P5vT28cVTy89L6pP6vqel6bep6Pqerx4mvD0v3nKnTh8Vem+KsWP/Kv&#xA;OH+5PhSh4/p71+dK/s/pL4qfLFWR6X+ifqi/or6v9U/Z+q8PTrQdPT+HpTFUNr/6J9KH9JfWPS5G&#xA;n1f61xpx+L1vq3+66dfU+DxxV2gf4X9CT/D31H6vy/ffo/0eHP8AyvR2r88VTN+PE86cKHlXpTvX&#xA;FUNpf6K+oxfor0PqFP3H1Xh6NK/s+n8P3Yqu1D0fqU3r+r6PA8/q/q+rT/I9D97X/U3xVjJ/5V1w&#xA;X9J+lWnwfp31fVp/k/pL4/uxVkunfo36nH+jfR+p0/dfVuHpUp+zw+HFUgn/AE3zf9BfWvqdT6fq&#xA;/VvQ/wCjf1P33GtacvgpTh8NMVbtv0f9Xu/0l+k/0hxT6x6vP636XMcPQ/R3wcK05+h/z0xVRl/5&#xA;VlxH6R/R/qd/0tx+sVpvy+u/vfGte9e9cVRmqf4a5WvrfWvQ9FPQ+pfXvqno/sc/qn+j8afz9vbF&#xA;Vul/8q7+ur+jP0V+kKino/V/rHLalafvOXz3xVkeKuxV/9k=</xapGImg:image>
    </rdf:li>
   </rdf:Alt>
  </xap:Thumbnails>
 </rdf:Description>

 <rdf:Description rdf:about=''
  xmlns:dc='http://purl.org/dc/elements/1.1/'>
  <dc:format>image/svg+xml</dc:format>
 </rdf:Description>

</rdf:RDF>
</x:xmpmeta>
                                                                                                                                                                                                                                                                                                                                                                                                                                                                                                                                                                                                                                                                                                                                                                                                                                                                                                                                                                                                                                                                                                                                                                                                                                                                                                                                                                                                                                                                                                                                                                                                                                                                                                                                                                                                                                                                                                                                                                                                                                                                                                                                <?xpacket end='w'?>
			</metadata>
		<g id="Layer_1" i:layer="yes" i:dimmedPercent="50" i:rgbTrio="#4F008000FFFF">
			<g i:knockout="Off">
				<path i:knockout="Off" d="M19.659,40.187c-0.582,2.125-1.352,4.047-2.313,5.768s-2.123,3.15-3.486,4.291
					s-2.984,1.709-4.861,1.709c-1.252,0-2.604-0.268-4.057-0.805c-1.453-0.535-3.051-1.451-4.795-2.748l4.627-10.326
					c0.223,0.447,0.658,0.838,1.307,1.174s1.352,0.502,2.113,0.502c0.535,0,1.016-0.445,1.441-1.34
					c0.424-0.895,0.793-1.934,1.105-3.119c0.313-1.184,0.559-2.402,0.738-3.654s0.313-2.258,0.402-3.018
					c0.848-4.336,1.652-8.662,2.414-12.977c0.76-4.313,1.654-8.615,2.682-12.908c2.012-0.178,3.988-0.457,5.934-0.838
					c1.945-0.379,3.9-0.838,5.869-1.375c-0.672,2.281-1.365,4.873-2.08,7.779s-1.408,5.881-2.078,8.92
					c-0.672,3.039-1.309,6.023-1.912,8.951s-1.129,5.555-1.574,7.879C20.733,36.019,20.241,38.064,19.659,40.187z"/>
				<path i:knockout="Off" d="M21.203,51.955l8.783-47.676l21.189-1.811c-0.313,0.984-0.582,1.99-0.805,3.018
					c-0.223,0.85-0.436,1.732-0.637,2.648c-0.201,0.918-0.369,1.732-0.502,2.447c-0.449,0.047-1.086,0.08-1.912,0.102
					c-0.828,0.023-1.711,0.045-2.648,0.066c-0.939,0.023-1.889,0.033-2.85,0.033s-1.801,0-2.516,0L36.96,22.787
					c1.385-0.09,2.682-0.156,3.889-0.201c0.982-0.045,1.988-0.068,3.018-0.068c1.027,0,1.787-0.021,2.279-0.066
					c-0.18,1.252-0.346,2.48-0.502,3.688s-0.348,2.438-0.57,3.689c-0.447,0.045-1.174,0.078-2.18,0.1
					c-1.006,0.023-2.023,0.057-3.051,0.102c-1.164,0.045-2.438,0.09-3.822,0.133L33.742,42.5l9.789-1.541l-0.67,7.645L21.203,51.955
					z"/>
				<path i:knockout="Off" d="M43.798,51.955c1.207-5.945,2.369-11.756,3.488-17.434c0.402-2.414,0.848-4.928,1.34-7.543
					s0.949-5.209,1.375-7.779c0.424-2.57,0.826-5.051,1.207-7.443c0.379-2.391,0.682-4.57,0.906-6.537
					c2.547-0.805,5.295-1.396,8.246-1.777c2.949-0.379,5.879-0.57,8.785-0.57c1.742,0,3.184,0.201,4.324,0.604
					s2.033,0.973,2.682,1.711s1.105,1.598,1.375,2.582c0.268,0.984,0.402,2.078,0.402,3.285c0,1.789-0.314,3.543-0.939,5.264
					c-0.625,1.723-1.463,3.354-2.514,4.895c-1.051,1.543-2.258,2.951-3.621,4.225s-2.828,2.313-4.391,3.117
					c0.805,1.789,1.664,3.746,2.58,5.869s1.777,4.146,2.582,6.068c0.895,2.234,1.811,4.471,2.75,6.705l-10.395,3.621
					c-0.895-2.861-1.699-5.543-2.414-8.047c-0.313-1.027-0.627-2.09-0.939-3.186c-0.313-1.094-0.604-2.133-0.871-3.117
					c-0.27-0.984-0.492-1.867-0.67-2.648c-0.18-0.781-0.291-1.42-0.336-1.912l-0.871,0.268c-0.27,1.432-0.594,3.109-0.973,5.031
					c-0.381,1.922-0.727,3.777-1.039,5.564c-0.402,2.102-0.805,4.225-1.207,6.369L43.798,51.955z M59.556,22.853
					c0.85-0.09,1.889-0.447,3.119-1.072c1.229-0.625,2.402-1.375,3.52-2.246s2.08-1.777,2.885-2.717
					c0.805-0.938,1.207-1.766,1.207-2.48c0-0.492-0.158-0.883-0.471-1.174c-0.313-0.289-0.748-0.514-1.307-0.67
					s-1.174-0.256-1.844-0.301c-0.672-0.045-1.365-0.068-2.08-0.068c-0.492,0-0.994,0.012-1.508,0.033
					c-0.516,0.023-0.973,0.033-1.375,0.033L59.556,22.853z"/>
				<path i:knockout="Off" d="M73.771,51.955c1.34-6.258,2.592-12.336,3.756-18.238c0.445-2.547,0.916-5.186,1.408-7.912
					s0.949-5.432,1.375-8.113c0.424-2.682,0.803-5.285,1.139-7.813c0.336-2.525,0.592-4.816,0.771-6.873
					c1.027,0.09,2.189,0.168,3.486,0.234s2.504,0.145,3.621,0.234c1.34,0.09,2.682,0.135,4.023,0.135
					c-0.045,0.18-0.111,0.514-0.201,1.006s-0.201,1.084-0.334,1.777c-0.135,0.693-0.281,1.465-0.438,2.313
					c-0.156,0.85-0.324,1.699-0.502,2.549c-0.359,1.967-0.762,4.18-1.207,6.639l0.402-0.068c0.445-0.715,1.082-1.709,1.91-2.982
					s1.688-2.627,2.582-4.057s1.766-2.805,2.615-4.125c0.85-1.318,1.564-2.447,2.146-3.387c2.234-0.178,4.471-0.379,6.705-0.604
					c2.234-0.223,4.471-0.514,6.705-0.871c-2.102,2.816-4.135,5.588-6.102,8.314c-0.85,1.164-1.711,2.371-2.582,3.621
					c-0.871,1.252-1.732,2.48-2.582,3.688s-1.643,2.371-2.381,3.488s-1.396,2.146-1.977,3.084c0.982,4.516,2.145,8.873,3.486,13.076
					c1.34,4.203,2.705,8.494,4.092,12.873c-1.029-0.043-2.08-0.076-3.152-0.1c-1.074-0.021-2.125-0.033-3.152-0.033
					c-1.297,0-2.547,0.012-3.754,0.033c-1.207,0.023-2.459,0.057-3.756,0.1c-0.402-2.904-0.84-5.955-1.309-9.152
					c-0.469-3.195-0.904-6.246-1.307-9.152l-1.207,1.408c-0.313,1.342-0.66,2.996-1.039,4.963c-0.381,1.967-0.75,3.865-1.107,5.697
					c-0.402,2.146-0.828,4.359-1.273,6.639L73.771,51.955z"/>
				<path i:knockout="Off" d="M129.326,43.876c-1.32,1.811-2.705,3.33-4.158,4.559c-1.453,1.23-2.916,2.135-4.391,2.717
					c-1.477,0.582-2.906,0.871-4.293,0.871s-2.648-0.313-3.789-0.939c-1.141-0.625-2.135-1.564-2.982-2.816
					c-0.85-1.25-1.531-2.793-2.045-4.625c-0.516-1.832-0.771-3.979-0.771-6.439c0-4.201,0.58-8.348,1.742-12.438
					s2.793-7.768,4.895-11.031c2.102-3.262,4.594-5.889,7.477-7.879c2.883-1.988,6.068-2.984,9.557-2.984
					c1.072,0,2.1,0.225,3.084,0.672s1.834,1.072,2.549,1.877s1.283,1.789,1.709,2.951s0.639,2.459,0.639,3.889
					c0,0.27,0,0.549,0,0.838c0,0.291-0.023,0.592-0.068,0.904l-8.783,2.348c-0.537-1.117-1.162-1.676-1.877-1.676
					c-0.717,0-1.467,0.414-2.248,1.24c-0.781,0.828-1.553,1.9-2.313,3.219c-0.762,1.318-1.498,2.793-2.213,4.426
					s-1.342,3.275-1.877,4.928c-0.537,1.654-0.973,3.23-1.309,4.729s-0.502,2.717-0.502,3.654c0,1.43,0.189,2.436,0.568,3.018
					s0.883,0.871,1.51,0.871c0.492,0,1.051-0.189,1.676-0.57c0.625-0.379,1.207-0.871,1.744-1.475
					c0.535-0.604,1.027-1.285,1.475-2.045s0.76-1.52,0.939-2.281l7.645,3.086C131.839,39.931,130.644,42.066,129.326,43.876z"/>
				<path i:knockout="Off" d="M132.578,51.955l8.783-47.676l21.189-1.811c-0.313,0.984-0.582,1.99-0.805,3.018
					c-0.223,0.85-0.436,1.732-0.637,2.648c-0.201,0.918-0.369,1.732-0.502,2.447c-0.449,0.047-1.086,0.08-1.912,0.102
					c-0.828,0.023-1.711,0.045-2.648,0.066c-0.939,0.023-1.889,0.033-2.85,0.033s-1.801,0-2.516,0l-2.346,12.004
					c1.385-0.09,2.682-0.156,3.889-0.201c0.982-0.045,1.988-0.068,3.018-0.068c1.027,0,1.787-0.021,2.279-0.066
					c-0.18,1.252-0.346,2.48-0.502,3.688s-0.348,2.438-0.57,3.689c-0.447,0.045-1.174,0.078-2.18,0.1
					c-1.006,0.023-2.023,0.057-3.051,0.102c-1.164,0.045-2.438,0.09-3.822,0.133L145.117,42.5l9.789-1.541l-0.67,7.645
					L132.578,51.955z"/>
				<path i:knockout="Off" d="M155.173,51.955c1.207-5.945,2.369-11.756,3.488-17.434c0.402-2.414,0.848-4.928,1.34-7.543
					s0.949-5.209,1.375-7.779c0.424-2.57,0.826-5.051,1.207-7.443c0.379-2.391,0.682-4.57,0.906-6.537
					c2.547-0.805,5.295-1.396,8.246-1.777c2.949-0.379,5.879-0.57,8.785-0.57c1.742,0,3.184,0.201,4.324,0.604
					s2.033,0.973,2.682,1.711s1.105,1.598,1.375,2.582c0.268,0.984,0.402,2.078,0.402,3.285c0,1.789-0.314,3.543-0.939,5.264
					c-0.625,1.723-1.463,3.354-2.514,4.895c-1.051,1.543-2.258,2.951-3.621,4.225s-2.828,2.313-4.391,3.117
					c0.805,1.789,1.664,3.746,2.58,5.869s1.777,4.146,2.582,6.068c0.895,2.234,1.811,4.471,2.75,6.705l-10.395,3.621
					c-0.895-2.861-1.699-5.543-2.414-8.047c-0.313-1.027-0.627-2.09-0.939-3.186c-0.313-1.094-0.604-2.133-0.871-3.117
					c-0.27-0.984-0.492-1.867-0.67-2.648c-0.18-0.781-0.291-1.42-0.336-1.912l-0.871,0.268c-0.27,1.432-0.594,3.109-0.973,5.031
					c-0.381,1.922-0.727,3.777-1.039,5.564c-0.402,2.102-0.805,4.225-1.207,6.369L155.173,51.955z M170.931,22.853
					c0.85-0.09,1.889-0.447,3.119-1.072c1.229-0.625,2.402-1.375,3.52-2.246s2.08-1.777,2.885-2.717
					c0.805-0.938,1.207-1.766,1.207-2.48c0-0.492-0.158-0.883-0.471-1.174c-0.313-0.289-0.748-0.514-1.307-0.67
					s-1.174-0.256-1.844-0.301c-0.672-0.045-1.365-0.068-2.08-0.068c-0.492,0-0.994,0.012-1.508,0.033
					c-0.516,0.023-0.973,0.033-1.375,0.033L170.931,22.853z"/>
				<path i:knockout="Off" d="M190.712,51.955c1.027-4.916,2.012-9.766,2.951-14.551c0.402-2.012,0.805-4.111,1.207-6.303
					c0.402-2.189,0.793-4.346,1.172-6.471c0.379-2.123,0.715-4.18,1.006-6.168c0.289-1.988,0.547-3.811,0.771-5.467
					c-1.029-0.133-2.068-0.178-3.119-0.133s-2.09-0.09-3.117-0.402c0.045-0.715,0.068-1.543,0.068-2.482
					c0-0.938,0.021-1.877,0.066-2.816c0.043-1.027,0.088-2.121,0.135-3.285c1.16,0.09,2.322,0.158,3.484,0.201
					c1.162,0.045,2.324,0.066,3.488,0.066c2.279,0,4.48-0.055,6.605-0.166c2.123-0.111,4.09-0.246,5.9-0.402s3.588-0.348,5.332-0.57
					l-0.738,3.621c-0.225,1.027-0.438,2.078-0.639,3.15c-0.201,1.074-0.391,1.99-0.568,2.75c-0.984,0.27-1.979,0.459-2.984,0.57
					c-1.006,0.113-2,0.258-2.984,0.436c-0.313,1.52-0.648,3.207-1.006,5.063s-0.703,3.779-1.039,5.768s-0.66,4.012-0.973,6.068
					s-0.625,4.023-0.938,5.9c-0.717,4.426-1.387,9.008-2.012,13.746L190.712,51.955z"/>
				<path i:knockout="Off" d="M222.329,49.072c-0.381,0.85-0.928,1.598-1.643,2.246s-1.609,1.162-2.682,1.543
					c-1.074,0.379-2.303,0.57-3.688,0.57c-0.939,0-1.789-0.18-2.549-0.537c-0.762-0.359-1.377-0.84-1.846-1.441
					c-0.469-0.604-0.838-1.285-1.105-2.045s-0.402-1.52-0.402-2.281c0-0.848,0.135-1.664,0.402-2.447
					c0.268-0.781,0.682-1.475,1.24-2.078s1.252-1.105,2.08-1.508c0.826-0.402,1.82-0.604,2.984-0.604
					c2.592,0,4.535,0.615,5.832,1.844c1.297,1.23,1.945,2.627,1.945,4.189C222.899,47.375,222.708,48.224,222.329,49.072z"/>
				<path i:knockout="Off" d="M231.986,50.714c-1.186,0.113-2.404,0.246-3.656,0.402s-2.381,0.303-3.387,0.436
					c-1.006,0.135-1.553,0.225-1.641,0.27c0.445-1.922,0.904-4.057,1.373-6.404s0.949-4.807,1.441-7.377s0.961-5.174,1.408-7.811
					s0.873-5.186,1.275-7.645c0.938-5.723,1.877-11.602,2.816-17.637l10.461-1.676c-1.029,5.992-2.035,11.869-3.018,17.635
					c-0.402,2.461-0.816,5.01-1.242,7.646s-0.85,5.252-1.273,7.846c-0.426,2.594-0.816,5.107-1.174,7.543
					c-0.357,2.438-0.693,4.639-1.006,6.604C233.962,50.546,233.169,50.603,231.986,50.714z"/>
				<path i:knockout="Off" d="M237.048,51.955l8.783-47.676l21.189-1.811c-0.313,0.984-0.582,1.99-0.805,3.018
					c-0.223,0.85-0.436,1.732-0.637,2.648c-0.201,0.918-0.369,1.732-0.502,2.447c-0.449,0.047-1.086,0.08-1.912,0.102
					c-0.828,0.023-1.711,0.045-2.648,0.066c-0.939,0.023-1.889,0.033-2.85,0.033s-1.801,0-2.516,0l-2.346,12.004
					c1.385-0.09,2.682-0.156,3.889-0.201c0.982-0.045,1.988-0.068,3.018-0.068c1.027,0,1.787-0.021,2.279-0.066
					c-0.18,1.252-0.346,2.48-0.502,3.688s-0.348,2.438-0.57,3.689c-0.447,0.045-1.174,0.078-2.18,0.1
					c-1.006,0.023-2.023,0.057-3.051,0.102c-1.164,0.045-2.438,0.09-3.822,0.133L249.587,42.5l9.789-1.541l-0.67,7.645
					L237.048,51.955z"/>
			</g>
			<g i:knockout="Off">
				<path i:knockout="Off" fill="#FFFFFF" d="M19.512,39.664c-0.582,2.125-1.352,4.047-2.313,5.768s-2.123,3.15-3.486,4.291
					c-1.363,1.141-2.984,1.709-4.861,1.709c-1.252,0-2.604-0.268-4.057-0.805C3.342,50.092,1.744,49.176,0,47.879l4.627-10.326
					C4.85,38,5.285,38.391,5.934,38.727s1.352,0.502,2.113,0.502c0.535,0,1.016-0.445,1.441-1.34
					c0.424-0.895,0.793-1.934,1.105-3.119c0.313-1.184,0.559-2.402,0.738-3.654s0.313-2.258,0.402-3.018
					c0.848-4.336,1.652-8.662,2.414-12.977c0.76-4.313,1.654-8.615,2.682-12.908c2.012-0.178,3.988-0.457,5.934-0.838
					c1.945-0.379,3.9-0.838,5.869-1.375c-0.672,2.281-1.365,4.873-2.08,7.779s-1.408,5.881-2.078,8.92
					c-0.672,3.039-1.309,6.023-1.912,8.951s-1.129,5.555-1.574,7.879C20.586,35.496,20.094,37.541,19.512,39.664z"/>
				<path i:knockout="Off" fill="#FFFFFF" d="M21.056,51.432l8.783-47.676l21.189-1.811c-0.313,0.984-0.582,1.99-0.805,3.018
					c-0.223,0.85-0.436,1.732-0.637,2.648c-0.201,0.918-0.369,1.732-0.502,2.447c-0.449,0.047-1.086,0.08-1.912,0.102
					c-0.828,0.023-1.711,0.045-2.648,0.066c-0.939,0.023-1.889,0.033-2.85,0.033s-1.801,0-2.516,0l-2.346,12.004
					c1.385-0.09,2.682-0.156,3.889-0.201c0.982-0.045,1.988-0.068,3.018-0.068c1.027,0,1.787-0.021,2.279-0.066
					c-0.18,1.252-0.346,2.48-0.502,3.688s-0.348,2.438-0.57,3.689c-0.447,0.045-1.174,0.078-2.18,0.1
					c-1.006,0.023-2.023,0.057-3.051,0.102c-1.164,0.045-2.438,0.09-3.822,0.133l-2.279,12.338l9.789-1.541l-0.67,7.645
					L21.056,51.432z"/>
				<path i:knockout="Off" fill="#FFFFFF" d="M43.651,51.432c1.207-5.946,2.369-11.756,3.488-17.434
					c0.402-2.414,0.848-4.928,1.34-7.543s0.949-5.209,1.375-7.779c0.424-2.57,0.826-5.051,1.207-7.443
					c0.379-2.391,0.682-4.57,0.906-6.537c2.547-0.805,5.295-1.396,8.246-1.777c2.949-0.379,5.879-0.57,8.785-0.57
					c1.742,0,3.184,0.201,4.324,0.604s2.033,0.973,2.682,1.711s1.105,1.598,1.375,2.582c0.268,0.984,0.402,2.078,0.402,3.285
					c0,1.789-0.314,3.543-0.939,5.264c-0.625,1.723-1.463,3.354-2.514,4.895c-1.051,1.543-2.258,2.951-3.621,4.225
					s-2.828,2.313-4.391,3.117c0.805,1.789,1.664,3.746,2.58,5.869s1.777,4.146,2.582,6.068c0.895,2.234,1.811,4.471,2.75,6.705
					l-10.395,3.621c-0.895-2.861-1.699-5.543-2.414-8.047c-0.313-1.027-0.627-2.09-0.939-3.186
					c-0.313-1.094-0.604-2.133-0.871-3.117c-0.27-0.984-0.492-1.867-0.67-2.648c-0.18-0.781-0.291-1.42-0.336-1.912l-0.871,0.268
					c-0.27,1.432-0.594,3.109-0.973,5.031c-0.381,1.922-0.727,3.777-1.039,5.564c-0.402,2.102-0.805,4.225-1.207,6.369
					L43.651,51.432z M59.409,22.33c0.85-0.09,1.889-0.447,3.119-1.072c1.229-0.625,2.402-1.375,3.52-2.246s2.08-1.777,2.885-2.717
					c0.805-0.938,1.207-1.766,1.207-2.48c0-0.492-0.158-0.883-0.471-1.174c-0.313-0.289-0.748-0.514-1.307-0.67
					s-1.174-0.256-1.844-0.301c-0.672-0.045-1.365-0.068-2.08-0.068c-0.492,0-0.994,0.012-1.508,0.033
					c-0.516,0.023-0.973,0.033-1.375,0.033L59.409,22.33z"/>
				<path i:knockout="Off" fill="#FFFFFF" d="M73.624,51.432c1.34-6.258,2.592-12.336,3.756-18.239
					c0.445-2.547,0.916-5.186,1.408-7.912s0.949-5.432,1.375-8.113c0.424-2.682,0.803-5.285,1.139-7.813
					c0.336-2.525,0.592-4.816,0.771-6.873c1.027,0.09,2.189,0.168,3.486,0.234s2.504,0.145,3.621,0.234
					c1.34,0.09,2.682,0.135,4.023,0.135c-0.045,0.18-0.111,0.514-0.201,1.006s-0.201,1.084-0.334,1.777
					c-0.135,0.693-0.281,1.465-0.438,2.313c-0.156,0.85-0.324,1.699-0.502,2.549c-0.359,1.967-0.762,4.18-1.207,6.639l0.402-0.068
					c0.445-0.715,1.082-1.709,1.91-2.982s1.688-2.627,2.582-4.057s1.766-2.805,2.615-4.125c0.85-1.318,1.564-2.447,2.146-3.387
					c2.234-0.178,4.471-0.379,6.705-0.604c2.234-0.223,4.471-0.514,6.705-0.871c-2.102,2.816-4.135,5.588-6.102,8.314
					c-0.85,1.164-1.711,2.371-2.582,3.621c-0.871,1.252-1.732,2.48-2.582,3.688s-1.643,2.371-2.381,3.488s-1.396,2.146-1.977,3.084
					c0.982,4.516,2.145,8.873,3.486,13.076c1.34,4.203,2.705,8.494,4.092,12.873c-1.029-0.043-2.08-0.076-3.152-0.1
					c-1.074-0.021-2.125-0.033-3.152-0.033c-1.297,0-2.547,0.012-3.754,0.033c-1.207,0.023-2.459,0.057-3.756,0.1
					c-0.402-2.904-0.84-5.955-1.309-9.152c-0.469-3.195-0.904-6.246-1.307-9.152l-1.207,1.408c-0.313,1.342-0.66,2.996-1.039,4.963
					c-0.381,1.967-0.75,3.865-1.107,5.697c-0.402,2.146-0.828,4.359-1.273,6.639L73.624,51.432z"/>
				<path i:knockout="Off" fill="#FFFFFF" d="M129.179,43.354c-1.32,1.811-2.705,3.33-4.158,4.559
					c-1.453,1.23-2.916,2.135-4.391,2.717c-1.477,0.583-2.906,0.872-4.293,0.872s-2.648-0.313-3.789-0.94
					c-1.141-0.625-2.135-1.564-2.982-2.816c-0.85-1.25-1.531-2.793-2.045-4.625c-0.516-1.832-0.771-3.979-0.771-6.439
					c0-4.201,0.58-8.348,1.742-12.438s2.793-7.768,4.895-11.031c2.102-3.262,4.594-5.889,7.477-7.879
					c2.883-1.988,6.068-2.984,9.557-2.984c1.072,0,2.1,0.225,3.084,0.672s1.834,1.072,2.549,1.877
					c0.715,0.805,1.284,1.789,1.709,2.951s0.639,2.459,0.639,3.889c0,0.27,0,0.549,0,0.838c0,0.291-0.023,0.592-0.068,0.904
					l-8.784,2.348c-0.537-1.117-1.162-1.676-1.877-1.676c-0.717,0-1.467,0.414-2.248,1.24c-0.781,0.828-1.553,1.9-2.313,3.219
					c-0.762,1.318-1.498,2.793-2.213,4.426s-1.342,3.275-1.877,4.928c-0.537,1.654-0.973,3.23-1.309,4.729s-0.502,2.717-0.502,3.654
					c0,1.43,0.189,2.436,0.568,3.018s0.883,0.871,1.51,0.871c0.492,0,1.051-0.189,1.676-0.57c0.625-0.379,1.207-0.871,1.744-1.475
					c0.535-0.604,1.027-1.285,1.475-2.045s0.76-1.52,0.939-2.281l7.645,3.086C131.692,39.408,130.497,41.543,129.179,43.354z"/>
				<path i:knockout="Off" fill="#FFFFFF" d="M132.431,51.432l8.783-47.676l21.189-1.811c-0.313,0.984-0.582,1.99-0.805,3.018
					c-0.223,0.85-0.436,1.732-0.637,2.648c-0.201,0.918-0.369,1.732-0.502,2.447c-0.449,0.047-1.086,0.08-1.912,0.102
					c-0.828,0.023-1.711,0.045-2.648,0.066c-0.939,0.023-1.889,0.033-2.85,0.033s-1.801,0-2.516,0l-2.346,12.004
					c1.385-0.09,2.682-0.156,3.889-0.201c0.982-0.045,1.988-0.068,3.018-0.068c1.027,0,1.787-0.021,2.279-0.066
					c-0.18,1.252-0.346,2.48-0.502,3.688s-0.348,2.438-0.57,3.689c-0.447,0.045-1.174,0.078-2.18,0.1
					c-1.006,0.023-2.023,0.057-3.051,0.102c-1.164,0.045-2.438,0.09-3.822,0.133l-2.279,12.338l9.789-1.541l-0.67,7.645
					L132.431,51.432z"/>
				<path i:knockout="Off" fill="#FFFFFF" d="M155.027,51.432c1.207-5.946,2.369-11.756,3.488-17.434
					c0.402-2.414,0.848-4.928,1.34-7.543s0.949-5.209,1.375-7.779c0.424-2.57,0.826-5.051,1.207-7.443
					c0.379-2.391,0.682-4.57,0.906-6.537c2.547-0.805,5.295-1.396,8.246-1.777c2.949-0.379,5.879-0.57,8.785-0.57
					c1.742,0,3.184,0.201,4.324,0.604s2.033,0.973,2.682,1.711s1.105,1.598,1.375,2.582c0.268,0.984,0.402,2.078,0.402,3.285
					c0,1.789-0.314,3.543-0.939,5.264c-0.625,1.723-1.463,3.354-2.514,4.895c-1.051,1.543-2.258,2.951-3.621,4.225
					s-2.828,2.313-4.391,3.117c0.805,1.789,1.664,3.746,2.58,5.869s1.777,4.146,2.582,6.068c0.895,2.234,1.811,4.471,2.75,6.705
					l-10.395,3.621c-0.895-2.861-1.699-5.543-2.414-8.047c-0.313-1.027-0.627-2.09-0.939-3.186
					c-0.313-1.094-0.604-2.133-0.871-3.117c-0.27-0.984-0.492-1.867-0.67-2.648c-0.18-0.781-0.291-1.42-0.336-1.912l-0.871,0.268
					c-0.27,1.432-0.594,3.109-0.973,5.031c-0.381,1.922-0.727,3.777-1.039,5.564c-0.402,2.102-0.805,4.225-1.207,6.369
					L155.027,51.432z M170.785,22.33c0.85-0.09,1.889-0.447,3.119-1.072c1.229-0.625,2.402-1.375,3.52-2.246s2.08-1.777,2.885-2.717
					c0.805-0.938,1.207-1.766,1.207-2.48c0-0.492-0.158-0.883-0.471-1.174c-0.313-0.289-0.748-0.514-1.307-0.67
					s-1.174-0.256-1.844-0.301c-0.672-0.045-1.365-0.068-2.08-0.068c-0.492,0-0.994,0.012-1.508,0.033
					c-0.516,0.023-0.973,0.033-1.375,0.033L170.785,22.33z"/>
				<path i:knockout="Off" fill="#FFFFFF" d="M190.566,51.432c1.027-4.917,2.012-9.766,2.951-14.551
					c0.402-2.012,0.805-4.111,1.207-6.303c0.402-2.189,0.793-4.346,1.172-6.471c0.379-2.123,0.715-4.18,1.006-6.168
					c0.289-1.988,0.547-3.811,0.771-5.467c-1.029-0.133-2.068-0.178-3.119-0.133s-2.09-0.09-3.117-0.402
					c0.045-0.715,0.068-1.543,0.068-2.482c0-0.938,0.021-1.877,0.066-2.816c0.043-1.027,0.088-2.121,0.135-3.285
					c1.16,0.09,2.322,0.158,3.484,0.201c1.162,0.045,2.324,0.066,3.488,0.066c2.279,0,4.48-0.055,6.605-0.166
					c2.123-0.111,4.09-0.246,5.9-0.402s3.588-0.348,5.332-0.57l-0.738,3.621c-0.225,1.027-0.438,2.078-0.639,3.15
					c-0.201,1.074-0.391,1.99-0.568,2.75c-0.984,0.27-1.979,0.459-2.984,0.57c-1.006,0.113-2,0.258-2.984,0.436
					c-0.313,1.52-0.648,3.207-1.006,5.063s-0.703,3.779-1.039,5.768s-0.66,4.012-0.973,6.068s-0.625,4.023-0.938,5.9
					c-0.717,4.426-1.387,9.008-2.012,13.746L190.566,51.432z"/>
				<path i:knockout="Off" fill="#FFFFFF" d="M222.182,48.549c-0.381,0.85-0.928,1.598-1.643,2.247
					c-0.715,0.648-1.609,1.162-2.682,1.543c-1.074,0.379-2.303,0.57-3.688,0.57c-0.939,0-1.789-0.18-2.549-0.537
					c-0.762-0.359-1.377-0.84-1.846-1.441c-0.469-0.604-0.838-1.286-1.105-2.045s-0.402-1.52-0.402-2.281
					c0-0.848,0.135-1.664,0.402-2.447c0.268-0.781,0.682-1.475,1.24-2.078s1.252-1.105,2.08-1.508
					c0.826-0.402,1.82-0.604,2.984-0.604c2.592,0,4.535,0.615,5.832,1.844c1.297,1.23,1.945,2.627,1.945,4.189
					C222.752,46.852,222.561,47.701,222.182,48.549z"/>
				<path i:knockout="Off" fill="#FFFFFF" d="M231.839,50.191c-1.186,0.113-2.404,0.246-3.656,0.402
					c-1.252,0.157-2.381,0.303-3.387,0.436c-1.006,0.135-1.553,0.225-1.641,0.27c0.445-1.922,0.904-4.057,1.373-6.405
					s0.949-4.807,1.441-7.377s0.961-5.174,1.408-7.811s0.873-5.186,1.275-7.645c0.938-5.723,1.877-11.602,2.816-17.637l10.461-1.676
					c-1.029,5.992-2.035,11.869-3.018,17.635c-0.402,2.461-0.816,5.01-1.242,7.646s-0.85,5.252-1.273,7.846
					c-0.426,2.594-0.816,5.107-1.174,7.543c-0.357,2.438-0.693,4.639-1.006,6.604C233.816,50.023,233.023,50.08,231.839,50.191z"/>
				<path i:knockout="Off" fill="#FFFFFF" d="M236.902,51.432l8.783-47.676l21.189-1.811c-0.313,0.984-0.582,1.99-0.805,3.018
					c-0.223,0.85-0.436,1.732-0.637,2.648c-0.201,0.918-0.369,1.732-0.502,2.447c-0.449,0.047-1.086,0.08-1.912,0.102
					c-0.828,0.023-1.711,0.045-2.648,0.066c-0.939,0.023-1.889,0.033-2.85,0.033s-1.801,0-2.516,0l-2.346,12.004
					c1.385-0.09,2.682-0.156,3.889-0.201c0.982-0.045,1.988-0.068,3.018-0.068c1.027,0,1.787-0.021,2.279-0.066
					c-0.18,1.252-0.346,2.48-0.502,3.688s-0.348,2.438-0.57,3.689c-0.447,0.045-1.174,0.078-2.18,0.1
					c-1.006,0.023-2.023,0.057-3.051,0.102c-1.164,0.045-2.438,0.09-3.822,0.133l-2.279,12.338l9.789-1.541l-0.67,7.645
					L236.902,51.432z"/>
			</g>
		</g>
	</svg>
